<svg width="128" height="128" viewBox="0 0 128 128" xmlns="http://www.w3.org/2000/svg">
  <defs>
    <linearGradient id="grad" x1="0%" y1="0%" x2="100%" y2="100%">
      <stop offset="0%" style="stop-color:#99abbb;stop-opacity:1" />
      <stop offset="50%" style="stop-color:#667788;stop-opacity:1" />
      <stop offset="100%" style="stop-color:#334455;stop-opacity:1" />
    </linearGradient>
    <filter id="scrap" x="-20%" y="-20%" width="140%" height="140%">
      <feTurbulence type="fractalNoise" baseFrequency="0.2" numOctaves="4" />
      <feColorMatrix type="matrix" values="0.4 0 0 0 0.3, 0 0.4 0 0 0.3, 0 0 0.4 0 0.3, 0 0 0 0.8 0" />
    </filter>
    <clipPath id="hullClip">
      <path d="M40 25 L88 25 L95 75 L33 75 Z" />
      <rect x="44" y="75" width="10" height="25" />
      <rect x="74" y="75" width="10" height="25" />
    </clipPath>
  </defs>
  
  <g fill="url(#grad)">
    <path d="M40 25 L88 25 L95 75 L33 75 Z" />
    <rect x="44" y="75" width="10" height="25" fill="#555" />
    <rect x="74" y="75" width="10" height="25" fill="#555" />
  </g>
  
  <rect x="0" y="0" width="128" height="128" filter="url(#scrap)" clip-path="url(#hullClip)" pointer-events="none" />
  
  <!-- Gritty Plating Details -->
  <g stroke="#222" stroke-width="0.8" opacity="0.4">
    <path d="M45 25 V75 M75 25 V75 M40 50 H88" />
  </g>
  
  <g stroke="#777" stroke-width="3" fill="none">
    <path d="M44 100 L35 115 L25 105" />
    <path d="M74 100 L83 115 L93 105" />
  </g>
  <circle cx="64" cy="35" r="3" fill="#ffcc00" />
</svg>
